<svg width="41" height="42" viewBox="0 0 41 42" fill="none" xmlns="http://www.w3.org/2000/svg">
<g clip-path="url(#clip0_13_193)">
<path d="M38.4375 36.375H2.5625V38.9375H38.4375V36.375Z" fill="black"/>
<path d="M31.3906 14.5938H10.25C9.57059 14.5944 8.9192 14.8646 8.43879 15.345C7.95837 15.8255 7.68818 16.4768 7.6875 17.1562V27.4062C7.6895 29.1047 8.36509 30.733 9.56606 31.9339C10.767 33.1349 12.3953 33.8105 14.0938 33.8125H24.3438C26.0422 33.8105 27.6705 33.1349 28.8714 31.9339C30.0724 30.733 30.748 29.1047 30.75 27.4062V26.125H31.3906C32.9198 26.125 34.3863 25.5176 35.4675 24.4363C36.5488 23.355 37.1562 21.8885 37.1562 20.3594C37.1562 18.8302 36.5488 17.3637 35.4675 16.2825C34.3863 15.2012 32.9198 14.5938 31.3906 14.5938ZM28.1875 27.4062C28.1864 28.4253 27.7811 29.4024 27.0605 30.123C26.3399 30.8436 25.3628 31.2489 24.3438 31.25H14.0938C13.0747 31.2489 12.0976 30.8436 11.377 30.123C10.6564 29.4024 10.2511 28.4253 10.25 27.4062V17.1562H28.1875V27.4062ZM31.3906 23.5625H30.75V17.1562H31.3906C32.2401 17.1562 33.0549 17.4937 33.6556 18.0944C34.2563 18.6951 34.5938 19.5099 34.5938 20.3594C34.5938 21.2089 34.2563 22.0236 33.6556 22.6243C33.0549 23.225 32.2401 23.5625 31.3906 23.5625Z" fill="black"/>
<path d="M24.3438 12.0312H21.7813V11.8442C21.783 11.368 21.6511 10.9009 21.4008 10.4958C21.1504 10.0908 20.7915 9.76397 20.3649 9.55254L16.9265 7.83336C16.0733 7.4102 15.3557 6.75648 14.855 5.94632C14.3543 5.13616 14.0906 4.20194 14.0938 3.24956V1.78125H16.6563V3.24956C16.6547 3.72572 16.7866 4.19279 17.037 4.59783C17.2873 5.00287 17.6461 5.32967 18.0727 5.54121L21.5111 7.26039C22.3642 7.6836 23.0818 8.33733 23.5825 9.14748C24.0831 9.95763 24.3469 10.8918 24.3438 11.8442V12.0312Z" fill="black"/>
</g>
<defs>
<clipPath id="clip0_13_193">
<rect width="41" height="41" fill="white" transform="translate(0 0.5)"/>
</clipPath>
</defs>
</svg>
