<svg width="20" height="20" viewBox="0 0 20 20" fill="none" xmlns="http://www.w3.org/2000/svg">
<path fill-rule="evenodd" clip-rule="evenodd" d="M8.40006 15.494H3.14923C2.80423 15.494 2.52423 15.214 2.52423 14.869C2.52423 14.524 2.80423 14.244 3.14923 14.244H8.40006C8.74506 14.244 9.02506 14.524 9.02506 14.869C9.02506 15.214 8.74506 15.494 8.40006 15.494Z" fill="white"/>
<path fill-rule="evenodd" clip-rule="evenodd" d="M15.9924 7.41699H10.7424C10.3974 7.41699 10.1174 7.13699 10.1174 6.79199C10.1174 6.44699 10.3974 6.16699 10.7424 6.16699H15.9924C16.3374 6.16699 16.6174 6.44699 16.6174 6.79199C16.6174 7.13699 16.3374 7.41699 15.9924 7.41699Z" fill="white"/>
<mask id="mask0_4_348" style="mask-type:luminance" maskUnits="userSpaceOnUse" x="2" y="4" width="6" height="6">
<path fill-rule="evenodd" clip-rule="evenodd" d="M2.5 4.16699H7.68817V9.32666H2.5V4.16699Z" fill="white"/>
</mask>
<g mask="url(#mask0_4_348)">
<path fill-rule="evenodd" clip-rule="evenodd" d="M5.09398 5.41663C4.35315 5.41663 3.74982 6.01329 3.74982 6.74746C3.74982 7.48079 4.35315 8.07663 5.09398 8.07663C5.83565 8.07663 6.43815 7.48079 6.43815 6.74746C6.43815 6.01329 5.83565 5.41663 5.09398 5.41663ZM5.09398 9.32663C3.66398 9.32663 2.49982 8.16996 2.49982 6.74746C2.49982 5.32496 3.66398 4.16663 5.09398 4.16663C6.52482 4.16663 7.68815 5.32496 7.68815 6.74746C7.68815 8.16996 6.52482 9.32663 5.09398 9.32663Z" fill="white"/>
</g>
<path fill-rule="evenodd" clip-rule="evenodd" d="M14.4898 13.5066C13.7481 13.5066 13.1448 14.1033 13.1448 14.8366C13.1448 15.5708 13.7481 16.1666 14.4898 16.1666C15.2306 16.1666 15.8331 15.5708 15.8331 14.8366C15.8331 14.1033 15.2306 13.5066 14.4898 13.5066ZM14.4898 17.4166C13.0589 17.4166 11.8948 16.2591 11.8948 14.8366C11.8948 13.4141 13.0589 12.2566 14.4898 12.2566C15.9198 12.2566 17.0831 13.4141 17.0831 14.8366C17.0831 16.2591 15.9198 17.4166 14.4898 17.4166Z" fill="white"/>
</svg>
