<svg width="30" height="42" viewBox="0 0 30 42" fill="none" xmlns="http://www.w3.org/2000/svg">
<path d="M30 10.0743C30 8.61184 29.0401 7.371 27.7218 6.95753C27.5956 3.10247 23.9838 0 19.5589 0H10.5644C6.1531 0 2.54972 3.08331 2.40239 6.92191C1.02056 7.29452 0 8.5663 0 10.0743C0 11.7458 1.25394 13.1271 2.86394 13.3153L5.05817 40.9554C5.10507 41.5454 5.59394 42 6.18141 42H23.942C24.5294 42 25.0183 41.5454 25.0652 40.9554L27.2606 13.2988C28.8103 13.056 30 11.7027 30 10.0743ZM26.7606 11.0676H3.23944C2.69592 11.0676 2.25352 10.6219 2.25352 10.0743C2.25352 9.52676 2.69592 9.08108 3.23944 9.08108H26.7606C27.3041 9.08108 27.7465 9.52676 27.7465 10.0743C27.7465 10.6219 27.3041 11.0676 26.7606 11.0676ZM16.988 21.653C18.2204 22.5784 19.0593 24.3874 19.0594 26.4628C19.0593 29.3749 17.408 31.7616 15.3356 31.9204C15.3942 29.4629 15.7532 28.1502 16.1315 26.7682C16.5015 25.4175 16.8818 24.027 16.988 21.653ZM13.9592 26.1646C13.5952 27.4934 13.2213 28.861 13.108 31.1651C11.9501 30.2118 11.172 28.4611 11.172 26.4627C11.1721 23.6171 12.7489 21.2737 14.7549 21.0201C14.6959 23.4729 14.3372 24.7841 13.9592 26.1646ZM9.42169 23.4122C9.09845 24.3489 8.91859 25.3799 8.91859 26.4628C8.91859 27.601 9.11803 28.6813 9.4731 29.6554H6.42183L5.9262 23.4122H9.42169ZM10.7315 31.9257C11.8541 33.3297 13.4049 34.1995 15.1158 34.1995C16.8265 34.1995 18.3772 33.3296 19.4997 31.9257H23.5211L22.9017 39.7297H7.22155L6.60211 31.9257H10.7315ZM23.7014 29.6554H20.7583C21.1134 28.6813 21.313 27.601 21.313 26.4628C21.313 25.3799 21.1331 24.3489 20.8099 23.4122H24.197L23.7014 29.6554ZM19.6082 21.1419C18.4782 19.6556 16.8828 18.7262 15.1158 18.7262C13.3487 18.7262 11.7534 19.6557 10.6235 21.1419H5.74606L5.73958 21.0614L5.12634 13.3378H24.9968L24.3772 21.1419H19.6082ZM4.66606 6.81081C4.88662 4.27676 7.44676 2.27027 10.5644 2.27027H19.5589C22.6765 2.27027 25.2366 4.27676 25.4572 6.81081H4.66606Z" fill="black"/>
</svg>
